<?xml version="1.0" encoding="iso-8859-1"?>
<!-- Generator: Adobe Illustrator 19.0.0, SVG Export Plug-In . SVG Version: 6.00 Build 0)  -->
<svg version="1.1" id="Layer_1" xmlns="http://www.w3.org/2000/svg" xmlns:xlink="http://www.w3.org/1999/xlink" x="0px" y="0px"
	 viewBox="0 0 512.003 512.003" style="enable-background:new 0 0 512.003 512.003;" xml:space="preserve">
<path style="fill:#C85A41;" d="M405.947,184.501c0,0,9-11.79,2-29.123c-5.085-12.592-58.84-90.674-102.552-83.113
	c-3.419,0.592-4.022,5.217-0.91,6.752c31.395,15.488,39.462,44.361,39.462,44.361c-15.33,3.406-37.187-4.066-50.979-9.91
	c-3.492-1.48-6.562,2.797-4.05,5.64c19.315,21.868,63.309,62.353,87.029,71.153L405.947,184.501z"/>
<g>
	<path style="fill:#E6785A;" d="M371.733,257.881c0,41.09-102.037,74.399-115.733,74.399c-13.696,0-115.733-33.31-115.733-74.399
		S192.082,183.482,256,183.482S371.733,216.791,371.733,257.881z"/>
	<path style="fill:#E6785A;" d="M148.533,216.548c0.284-11.363-8.267-20.15-24.8-24.801c-16.533-4.649-36.684-5.166-41.333,8.268
		s20.972,57.866,33.067,57.866C128.9,257.881,148.017,237.214,148.533,216.548z"/>
	<path style="fill:#E6785A;" d="M363.467,216.548c-0.284-11.363,8.267-20.15,24.8-24.801c16.533-4.649,36.684-5.166,41.333,8.268
		s-20.972,57.866-33.067,57.866C383.1,257.881,363.983,237.214,363.467,216.548z"/>
	<path style="fill:#E6785A;" d="M294.02,114.61c13.792,5.844,35.649,13.316,50.979,9.91c6.396,12.792,7.688,40.885,12.032,55.74
		c-23.457-16.043-52.38-43.389-67.062-60.011C287.459,117.407,290.529,113.13,294.02,114.61z"/>
</g>
<g>
	<path style="fill:#585661;" d="M340.005,104.503c-5.246-6.943-12.44-14.104-22.268-20.044c-2.991-1.809-1.898-6.343,1.585-6.633
		c13.786-1.147,27.826,6.096,40.748,16.974C352.459,96.362,343.908,99.437,340.005,104.503z"/>
	<path style="fill:#585661;" d="M307.979,125.565c5.901,2.498,13.278,5.293,20.988,7.41c-2.912,4.019-5.379,10.523-3.598,20.241
		c-8.448-8.073-15.946-15.8-21.446-22.021C301.402,128.345,304.473,124.082,307.979,125.565z"/>
</g>
<path style="fill:#C85A41;" d="M105.666,184.501c0,0-9-11.79-2-29.123c5.085-12.592,58.839-90.674,102.552-83.113
	c3.419,0.592,4.022,5.217,0.91,6.752c-31.395,15.488-39.462,44.361-39.462,44.361c15.33,3.406,37.187-4.066,50.979-9.91
	c3.492-1.48,6.562,2.797,4.05,5.64c-19.315,21.868-63.309,62.353-87.029,71.153L105.666,184.501z"/>
<path style="fill:#E6785A;" d="M219.979,114.61c-13.792,5.844-35.649,13.316-50.979,9.91c-6.396,12.792-7.688,40.885-12.032,55.74
	c23.457-16.043,52.38-43.389,67.062-60.011C226.541,117.407,223.471,113.13,219.979,114.61z"/>
<g>
	<path style="fill:#585661;" d="M171.162,104.503c5.821-6.469,13.602-12.988,23.901-18.065c3.135-1.546,2.434-6.157-1.012-6.745
		c-13.637-2.322-28.246,3.693-42.05,13.427C159.45,95.326,167.707,99.122,171.162,104.503z"/>
	<path style="fill:#585661;" d="M204.988,122.565c-5.901,2.498-13.278,5.293-20.988,7.41c2.912,4.019,5.379,10.523,3.598,20.241
		c8.448-8.073,15.946-15.8,21.446-22.021C211.565,125.345,208.495,121.082,204.988,122.565z"/>
</g>
<path d="M503.972,366.449c-0.411-2.875-1.586-5.593-3.4-7.86l-30.297-37.872c-1.754-2.19-4.057-3.899-6.66-4.939l-37.164-14.866
	c-2.765-1.105-5.779-1.428-8.713-0.941l-89.866,14.978c10.096-5.277,18.731-10.657,25.893-16.128
	c0.465,0.084,0.941,0.129,1.426,0.129c0.376,0,0.758-0.026,1.142-0.081l56.107-8.015c2.304-0.331,4.466-1.132,6.427-2.38
	l89.429-56.909c3.728-2.372,4.827-7.316,2.455-11.044c-2.373-3.729-7.318-4.828-11.044-2.454l-89.43,56.909
	c-0.032,0.021-0.07,0.034-0.105,0.039l-30.446,4.349l43.986-21.993c1.567-0.783,2.99-1.809,4.228-3.046l38.617-38.617
	c2.277-2.277,3.815-5.151,4.447-8.311l7.775-38.879c0.866-4.333-1.943-8.547-6.276-9.414c-4.333-0.862-8.546,1.943-9.414,6.275
	l-7.775,38.878c-0.011,0.053-0.037,0.102-0.073,0.138l-23.984,23.973c5.2-11.165,8.617-23.133,5.904-30.969
	c-1.533-4.428-5.364-10.994-14.85-14.396c1.905-6.693,2.679-16.16-1.826-27.316c-5.148-12.746-45.604-71.819-86.925-87.45
	c-14.462-5.472-27.767-5.295-39.552,0.508c-0.037,0.017-0.073,0.034-0.11,0.052c-0.047,0.022-0.095,0.042-0.142,0.065
	c-0.077,0.038-0.146,0.085-0.221,0.125c-0.126,0.069-0.252,0.137-0.375,0.212c-0.11,0.067-0.216,0.139-0.321,0.211
	c-0.109,0.074-0.217,0.148-0.322,0.229c-0.108,0.08-0.212,0.165-0.314,0.252c-0.096,0.08-0.191,0.16-0.284,0.246
	c-0.1,0.092-0.196,0.187-0.291,0.283c-0.088,0.09-0.174,0.18-0.258,0.273c-0.089,0.1-0.173,0.202-0.257,0.306
	c-0.081,0.101-0.16,0.201-0.236,0.306c-0.078,0.106-0.151,0.215-0.223,0.324c-0.071,0.108-0.141,0.217-0.207,0.329
	c-0.068,0.117-0.132,0.235-0.194,0.355c-0.058,0.111-0.116,0.223-0.169,0.337c-0.061,0.131-0.114,0.264-0.167,0.396
	c-0.032,0.08-0.07,0.155-0.1,0.236c-0.012,0.034-0.02,0.068-0.032,0.104c-0.047,0.135-0.086,0.271-0.126,0.408
	c-0.034,0.12-0.071,0.238-0.101,0.359c-0.03,0.123-0.051,0.25-0.075,0.375c-0.025,0.134-0.054,0.268-0.072,0.402
	c-0.016,0.113-0.022,0.23-0.034,0.346c-0.013,0.143-0.03,0.287-0.036,0.43c-0.004,0.118,0,0.236,0.001,0.355
	c0.001,0.139-0.002,0.277,0.006,0.416c0.008,0.131,0.026,0.262,0.04,0.394c0.014,0.124,0.023,0.249,0.042,0.373
	c0.021,0.136,0.053,0.271,0.081,0.406c0.025,0.119,0.047,0.239,0.077,0.356c0.032,0.127,0.075,0.252,0.114,0.378
	s0.076,0.253,0.121,0.378c0.042,0.111,0.091,0.223,0.138,0.334c0.056,0.135,0.112,0.271,0.176,0.402
	c0.015,0.031,0.026,0.064,0.042,0.096c0.038,0.076,0.083,0.145,0.123,0.218c0.069,0.128,0.139,0.256,0.214,0.38
	c0.066,0.109,0.138,0.213,0.208,0.318c0.075,0.109,0.15,0.219,0.23,0.325c0.081,0.107,0.166,0.211,0.251,0.313
	c0.081,0.096,0.162,0.191,0.247,0.283c0.093,0.102,0.188,0.197,0.285,0.293c0.089,0.087,0.178,0.173,0.271,0.256
	c0.102,0.09,0.206,0.177,0.312,0.262c0.097,0.078,0.195,0.155,0.296,0.229c0.111,0.081,0.224,0.157,0.339,0.231
	c0.103,0.067,0.206,0.134,0.312,0.196c0.125,0.073,0.251,0.142,0.38,0.208c0.102,0.053,0.204,0.106,0.31,0.156
	c0.144,0.066,0.29,0.125,0.437,0.184c0.07,0.027,0.136,0.061,0.207,0.087c23.332,8.484,35.184,24.612,40.628,34.884
	c-18.012-1.076-41.677-11.613-50.667-16.396c-0.083-0.044-0.168-0.078-0.251-0.118c-0.12-0.058-0.239-0.118-0.362-0.171
	c-0.143-0.061-0.287-0.114-0.432-0.167c-0.092-0.033-0.183-0.067-0.276-0.097c-0.168-0.055-0.337-0.101-0.507-0.143
	c-0.076-0.02-0.15-0.039-0.226-0.056c-0.18-0.039-0.36-0.07-0.541-0.097c-0.074-0.012-0.148-0.023-0.223-0.031
	c-0.177-0.021-0.354-0.035-0.531-0.045c-0.085-0.004-0.17-0.008-0.255-0.01c-0.165-0.003-0.33,0-0.494,0.008
	c-0.1,0.004-0.2,0.008-0.3,0.016c-0.152,0.013-0.302,0.031-0.452,0.052c-0.11,0.015-0.22,0.03-0.33,0.051
	c-0.145,0.026-0.288,0.059-0.431,0.093c-0.11,0.025-0.22,0.052-0.329,0.083c-0.149,0.042-0.296,0.092-0.443,0.143
	c-0.099,0.034-0.197,0.067-0.295,0.106c-0.162,0.063-0.319,0.135-0.477,0.209c-0.06,0.027-0.123,0.049-0.183,0.079
	c-0.021,0.011-0.041,0.024-0.061,0.034c-0.165,0.084-0.324,0.178-0.482,0.273c-0.07,0.041-0.144,0.081-0.212,0.125
	c-0.147,0.095-0.289,0.199-0.43,0.304c-0.073,0.054-0.148,0.104-0.219,0.161c-0.121,0.096-0.236,0.201-0.353,0.306
	c-0.081,0.073-0.166,0.143-0.243,0.218c-0.095,0.092-0.183,0.192-0.272,0.289c-0.09,0.098-0.183,0.191-0.268,0.293
	c-0.072,0.086-0.139,0.178-0.208,0.269c-0.093,0.12-0.187,0.239-0.272,0.364c-0.059,0.086-0.112,0.178-0.168,0.268
	c-0.085,0.136-0.171,0.271-0.248,0.412c-0.014,0.025-0.031,0.049-0.045,0.075c-0.041,0.076-0.071,0.155-0.109,0.232
	c-0.064,0.131-0.129,0.262-0.187,0.396c-0.054,0.126-0.1,0.253-0.146,0.38c-0.042,0.112-0.084,0.226-0.12,0.34
	c-0.045,0.144-0.084,0.287-0.121,0.433c-0.027,0.104-0.054,0.207-0.076,0.313c-0.032,0.148-0.058,0.298-0.081,0.447
	c-0.017,0.107-0.033,0.216-0.045,0.324c-0.017,0.143-0.027,0.284-0.035,0.427c-0.008,0.121-0.014,0.243-0.015,0.364
	c-0.001,0.129,0.001,0.256,0.005,0.385c0.005,0.136,0.011,0.271,0.023,0.407c0.01,0.116,0.024,0.23,0.039,0.346
	c0.019,0.144,0.04,0.286,0.066,0.43c0.021,0.112,0.046,0.224,0.072,0.335c0.032,0.139,0.065,0.278,0.105,0.417
	c0.035,0.121,0.076,0.241,0.116,0.36c0.042,0.123,0.083,0.246,0.131,0.367c0.055,0.141,0.119,0.277,0.182,0.414
	c0.035,0.075,0.062,0.152,0.099,0.227c0.018,0.035,0.041,0.074,0.059,0.109c0.021,0.043,0.044,0.084,0.066,0.125
	c4.78,9.229,25.221,30.051,42.334,45.619c11.486,10.449,30.875,27.127,47.968,37.223c-4.517,4.459-6.778,9.262-7.819,13.58
	c-4.179-3.818-8.881-7.424-14.091-10.772c-6.252-4.019-13.064-7.532-20.295-10.545v-4.517c0-4.418-3.582-8-8-8
	c-4.052,0-7.392,3.016-7.919,6.922c-15.534-4.521-32.468-6.922-49.948-6.922s-34.414,2.4-49.948,6.922
	c-0.527-3.906-3.867-6.922-7.919-6.922c-4.418,0-8,3.582-8,8V188c-7.231,3.013-14.043,6.526-20.295,10.545
	c-5.209,3.349-9.912,6.954-14.091,10.772c-1.041-4.318-3.302-9.121-7.819-13.58c17.093-10.096,36.482-26.773,47.968-37.223
	c17.114-15.568,37.555-36.39,42.334-45.619c0.022-0.041,0.045-0.082,0.066-0.125c0.018-0.035,0.041-0.074,0.059-0.109
	c0.037-0.074,0.064-0.151,0.099-0.227c0.063-0.137,0.126-0.273,0.182-0.414c0.048-0.121,0.089-0.244,0.131-0.367
	c0.041-0.119,0.081-0.239,0.116-0.36c0.04-0.139,0.073-0.278,0.105-0.417c0.025-0.111,0.051-0.223,0.072-0.335
	c0.026-0.144,0.047-0.286,0.066-0.431c0.015-0.114,0.029-0.229,0.039-0.344c0.012-0.137,0.018-0.273,0.023-0.41
	c0.004-0.127,0.007-0.254,0.005-0.383c-0.001-0.121-0.007-0.242-0.015-0.364c-0.008-0.143-0.019-0.284-0.035-0.427
	c-0.012-0.108-0.028-0.217-0.045-0.324c-0.023-0.149-0.049-0.299-0.081-0.447c-0.022-0.105-0.049-0.209-0.076-0.313
	c-0.037-0.146-0.076-0.289-0.121-0.433c-0.036-0.114-0.078-0.228-0.12-0.34c-0.047-0.127-0.093-0.254-0.146-0.38
	c-0.057-0.134-0.122-0.265-0.187-0.396c-0.038-0.077-0.068-0.156-0.109-0.232c-0.014-0.026-0.031-0.05-0.045-0.075
	c-0.077-0.14-0.162-0.275-0.246-0.41c-0.057-0.09-0.11-0.184-0.17-0.271c-0.083-0.122-0.175-0.238-0.266-0.356
	c-0.071-0.093-0.141-0.189-0.216-0.278c-0.08-0.096-0.168-0.186-0.254-0.278c-0.095-0.102-0.188-0.207-0.287-0.303
	c-0.071-0.07-0.148-0.133-0.223-0.2c-0.123-0.11-0.245-0.223-0.375-0.325c-0.062-0.05-0.129-0.094-0.193-0.143
	c-0.15-0.111-0.3-0.222-0.457-0.322c-0.061-0.039-0.125-0.074-0.188-0.111c-0.166-0.101-0.333-0.197-0.506-0.285
	c-0.02-0.01-0.037-0.022-0.056-0.032c-0.056-0.028-0.115-0.048-0.171-0.075c-0.162-0.076-0.325-0.15-0.492-0.215
	c-0.096-0.038-0.192-0.07-0.289-0.104c-0.147-0.051-0.295-0.102-0.445-0.144c-0.111-0.032-0.223-0.058-0.334-0.085
	c-0.14-0.033-0.28-0.064-0.422-0.09c-0.115-0.021-0.229-0.037-0.345-0.054c-0.144-0.02-0.288-0.037-0.433-0.049
	c-0.108-0.009-0.216-0.014-0.324-0.019c-0.155-0.006-0.311-0.009-0.466-0.006c-0.096,0.002-0.19,0.006-0.286,0.012
	c-0.167,0.008-0.333,0.021-0.499,0.041c-0.087,0.01-0.172,0.023-0.258,0.036c-0.169,0.025-0.337,0.054-0.505,0.091
	c-0.089,0.02-0.176,0.042-0.264,0.064c-0.158,0.04-0.315,0.082-0.472,0.133c-0.105,0.033-0.209,0.072-0.313,0.11
	c-0.133,0.049-0.266,0.097-0.397,0.153c-0.135,0.059-0.267,0.123-0.399,0.188c-0.075,0.037-0.152,0.067-0.227,0.106
	c-8.972,4.784-32.594,15.32-50.624,16.397c5.483-10.277,17.382-26.448,40.589-34.887c0.086-0.031,0.166-0.071,0.25-0.104
	c0.126-0.052,0.252-0.102,0.376-0.159c0.123-0.057,0.241-0.118,0.359-0.181c0.112-0.059,0.224-0.117,0.333-0.182
	c0.12-0.07,0.236-0.145,0.351-0.221c0.102-0.066,0.203-0.135,0.302-0.207c0.112-0.081,0.221-0.166,0.327-0.252
	c0.097-0.078,0.191-0.157,0.284-0.239c0.101-0.09,0.197-0.183,0.293-0.276c0.091-0.09,0.18-0.18,0.267-0.273
	c0.09-0.098,0.176-0.198,0.261-0.301c0.082-0.098,0.163-0.197,0.241-0.3c0.083-0.109,0.16-0.222,0.237-0.335
	c0.069-0.103,0.138-0.204,0.203-0.311c0.077-0.125,0.147-0.254,0.217-0.383c0.039-0.074,0.084-0.142,0.122-0.217
	c0.016-0.031,0.027-0.064,0.042-0.096c0.064-0.132,0.12-0.268,0.176-0.402c0.047-0.111,0.096-0.223,0.138-0.334
	c0.045-0.125,0.082-0.252,0.121-0.378s0.082-0.251,0.114-0.378c0.03-0.117,0.052-0.237,0.077-0.356
	c0.028-0.136,0.06-0.271,0.081-0.406c0.02-0.124,0.029-0.249,0.042-0.373c0.014-0.132,0.032-0.263,0.04-0.394
	c0.008-0.139,0.005-0.277,0.006-0.416c0-0.119,0.005-0.237,0.001-0.355c-0.006-0.143-0.022-0.287-0.036-0.43
	c-0.011-0.115-0.018-0.232-0.034-0.346c-0.019-0.135-0.047-0.269-0.072-0.402c-0.024-0.125-0.045-0.252-0.075-0.375
	c-0.029-0.121-0.066-0.239-0.101-0.359c-0.04-0.137-0.079-0.273-0.126-0.408c-0.012-0.035-0.02-0.069-0.032-0.104
	c-0.03-0.081-0.068-0.156-0.1-0.236c-0.053-0.133-0.106-0.266-0.167-0.395c-0.054-0.116-0.112-0.229-0.171-0.342
	c-0.062-0.118-0.124-0.235-0.191-0.351c-0.067-0.114-0.139-0.226-0.211-0.336c-0.07-0.106-0.141-0.212-0.216-0.315
	c-0.079-0.108-0.162-0.213-0.246-0.317c-0.08-0.099-0.16-0.196-0.245-0.291c-0.089-0.1-0.181-0.196-0.274-0.291
	c-0.089-0.09-0.179-0.179-0.272-0.265c-0.101-0.094-0.204-0.182-0.309-0.269c-0.094-0.078-0.188-0.155-0.287-0.23
	c-0.116-0.088-0.236-0.171-0.357-0.252c-0.094-0.063-0.187-0.127-0.284-0.187c-0.139-0.085-0.28-0.163-0.424-0.239
	c-0.063-0.034-0.122-0.073-0.187-0.105c-0.039-0.02-0.08-0.036-0.119-0.056c-0.052-0.025-0.104-0.049-0.158-0.073
	c-11.78-5.79-25.075-5.964-39.527-0.496c-41.321,15.631-81.777,74.704-86.925,87.451c-4.504,11.155-3.73,20.622-1.826,27.315
	c-9.486,3.402-13.316,9.969-14.85,14.396c-2.715,7.842,0.709,19.82,5.915,30.991l-23.994-23.993
	c-0.038-0.038-0.064-0.087-0.074-0.138l-7.775-38.88c-0.866-4.331-5.081-7.133-9.414-6.275c-4.333,0.867-7.142,5.081-6.276,9.414
	l7.776,38.88c0.632,3.158,2.169,6.032,4.448,8.312l38.615,38.615c1.238,1.237,2.66,2.263,4.228,3.046l43.987,21.993l-30.44-4.348
	c-0.041-0.006-0.079-0.02-0.111-0.04l-89.429-56.909c-3.727-2.373-8.672-1.272-11.044,2.454c-2.372,3.728-1.273,8.672,2.455,11.044
	l89.429,56.909c1.961,1.248,4.124,2.049,6.433,2.381l56.102,8.014c0.384,0.055,0.765,0.081,1.142,0.081
	c0.485,0,0.961-0.045,1.426-0.129c7.162,5.471,15.796,10.85,25.892,16.128l-89.866-14.973c-2.936-0.493-5.949-0.166-8.717,0.941
	l-37.16,14.864c-2.605,1.041-4.908,2.75-6.663,4.943l-30.296,37.87c-1.813,2.267-2.989,4.984-3.4,7.859l-7.948,55.633
	c-0.625,4.374,2.414,8.427,6.788,9.052c0.384,0.055,0.765,0.081,1.142,0.081c3.917,0,7.339-2.88,7.909-6.868l7.948-55.634
	c0.007-0.048,0.026-0.093,0.056-0.13l30.295-37.868c0.029-0.036,0.066-0.064,0.11-0.082l37.16-14.864
	c0.046-0.019,0.094-0.024,0.145-0.016l92.72,15.452c5.168,0.861,10.469-0.836,14.178-4.542l3.267-3.267
	c2.659,1.162,5.305,2.274,7.92,3.333c-6.103,6.408-11.849,11.653-14.549,14.052c-0.016,0.015-0.037,0.033-0.14,0.033h-76.14
	c-4.344,0-8.429,1.691-11.502,4.764l-44.756,44.757c-3.073,3.072-4.766,7.158-4.766,11.504v37.909c0,4.418,3.582,8,8,8s8-3.582,8-8
	v-37.909c0-0.07,0.028-0.139,0.078-0.188l44.756-44.757c0.05-0.051,0.119-0.079,0.189-0.079h76.14c3.987,0,7.811-1.445,10.766-4.071
	c4.379-3.891,12.371-11.285,20.115-19.965c13.98,4.782,25.375,7.503,30.088,7.503c4.713,0,16.108-2.721,30.088-7.503
	c7.744,8.68,15.736,16.074,20.115,19.966c2.955,2.625,6.779,4.07,10.766,4.07h76.14c0.07,0,0.139,0.028,0.188,0.078l44.758,44.759
	c0.049,0.049,0.077,0.117,0.077,0.188v37.909c0,4.418,3.582,8,8,8s8-3.582,8-8v-37.909c0-4.346-1.692-8.432-4.765-11.503
	l-44.758-44.759c-3.072-3.071-7.157-4.763-11.501-4.763h-76.14c-0.104,0-0.125-0.019-0.14-0.032
	c-2.7-2.399-8.446-7.645-14.549-14.053c2.616-1.059,5.262-2.171,7.921-3.333l3.267,3.267c3.708,3.708,9.008,5.405,14.176,4.543
	l92.724-15.454c0.048-0.009,0.096-0.003,0.141,0.016l37.164,14.866c0.042,0.017,0.08,0.045,0.107,0.079l30.295,37.87
	c0.03,0.037,0.049,0.082,0.056,0.13l7.948,55.634c0.57,3.989,3.992,6.868,7.909,6.868c0.377,0,0.758-0.026,1.142-0.081
	c4.374-0.625,7.413-4.678,6.788-9.052L503.972,366.449z M383.084,202.086c0.188-0.079,0.377-0.157,0.559-0.25
	c2.235-0.976,4.564-1.761,6.79-2.387c6.219-1.749,12.266-2.674,17.486-2.674c5.518,0,12.446,1.016,14.122,5.855
	c0.599,1.803-0.411,9.85-7.36,23.216c-7.766,14.936-15.825,22.972-18.488,24.025c-8.755-0.429-24.317-17.108-24.728-33.524
	C371.292,209.462,376.731,204.975,383.084,202.086z M381.074,260.8l-1.547,0.773c0.062-0.567,0.114-1.135,0.147-1.703
	C380.139,260.19,380.605,260.501,381.074,260.8z M308.701,129.31c9.434,2.935,19.797,5.187,29.396,5.187
	c3.667,0,7.223-0.328,10.572-1.072c2.144-0.477,3.998-1.813,5.127-3.697c1.129-1.885,1.434-4.149,0.843-6.265
	c-0.343-1.227-6.913-23.725-29.477-41.209c0.902,0.288,1.811,0.596,2.737,0.946c36.109,13.659,73.8,68.697,77.75,78.478
	c3.493,8.649,2.052,15.406,0.575,19.134c-6.237,0.173-13.148,1.274-20.123,3.236c-2.198,0.618-4.226,1.298-6.127,2.018
	c-12.366-5.559-31.45-19.688-53.104-39.386C320.07,140.492,313.962,134.612,308.701,129.31z M104.082,196.775
	c5.22,0,11.267,0.925,17.486,2.674c2.224,0.626,4.553,1.41,6.788,2.386c0.184,0.094,0.373,0.172,0.563,0.252
	c6.352,2.889,11.789,7.376,11.617,14.261c-0.41,16.416-15.972,33.096-24.728,33.524c-2.663-1.054-10.722-9.09-18.488-24.025
	c-6.949-13.366-7.959-21.413-7.36-23.215C91.635,197.791,98.564,196.775,104.082,196.775z M132.326,259.87
	c0.033,0.566,0.085,1.133,0.147,1.699l-1.543-0.772C131.397,260.499,131.863,260.19,132.326,259.87z M106.351,161.677
	c3.95-9.78,41.641-64.818,77.75-78.478c0.925-0.351,1.834-0.657,2.736-0.945c-22.563,17.485-29.133,39.981-29.476,41.208
	c-0.591,2.115-0.286,4.38,0.843,6.265c1.129,1.884,2.983,3.221,5.127,3.697c3.351,0.744,6.903,1.072,10.572,1.072
	c9.599,0,19.961-2.252,29.396-5.187c-5.261,5.303-11.369,11.183-18.169,17.369c-21.654,19.697-40.738,33.827-53.103,39.386
	c-1.901-0.72-3.93-1.399-6.127-2.018c-6.977-1.963-13.891-3.065-20.13-3.236C104.308,177.114,102.851,170.343,106.351,161.677z
	 M196.544,303.319c-30.681-15.176-48.277-31.737-48.277-45.438c0-17.057,10.733-33.35,30.224-45.879
	c4.136-2.659,8.564-5.065,13.22-7.233c1.458,1.966,3.788,3.246,6.423,3.246c4.418,0,8-3.582,8-8v-0.908
	c15.216-4.975,32.197-7.625,49.867-7.625s34.65,2.65,49.867,7.625v0.908c0,4.418,3.582,8,8,8c2.635,0,4.966-1.28,6.423-3.246
	c4.656,2.168,9.083,4.574,13.22,7.233c19.49,12.529,30.224,28.822,30.224,45.879c0,13.701-17.596,30.263-48.277,45.438
	c-27.809,13.754-55.068,20.962-59.456,20.962C251.614,324.281,224.353,317.073,196.544,303.319z"/>
<g>
</g>
<g>
</g>
<g>
</g>
<g>
</g>
<g>
</g>
<g>
</g>
<g>
</g>
<g>
</g>
<g>
</g>
<g>
</g>
<g>
</g>
<g>
</g>
<g>
</g>
<g>
</g>
<g>
</g>
</svg>
